<svg xmlns="http://www.w3.org/2000/svg" xmlns:xlink="http://www.w3.org/1999/xlink" width="351" height="304" viewBox="0 0 351 304">
    <defs>
        <path id="a" d="M0 304h350.222V.562H0z"/>
    </defs>
    <g fill="none" fill-rule="evenodd">
        <path fill="#FFF" d="M76.603 189.308h-8.741l3.407-11.72 3.858-.134 4.547-.346 3.666 3.711z"/>
        <g transform="translate(0 -.562)">
            <path fill="#FFF" d="M24.712 82.233c-8.936 1.027-6.382 12.124-6.382 12.124l6.382 34.974h23.573l-6.98-31.595H61.44l-8.967 31.594h20.804l11.027-36.909s2.144-10.207-8.315-10.9c-10.46-.694-38.214-.793-51.276.712"/>
            <path stroke="#000" stroke-width="1.154" d="M24.712 82.233c-8.936 1.027-6.382 12.124-6.382 12.124l6.382 34.974h23.573l-6.98-31.595H61.44l-8.967 31.594h20.804l11.027-36.909s2.144-10.207-8.315-10.9c-10.46-.694-38.214-.793-51.276.712z"/>
            <path fill="#000" d="M30.195 129.33s-9.244 2.363-8.197 9.605l.91 2.94 24.143-8.242-1.55-4.303H30.195zM70.1 129.33s9.244 2.363 8.197 9.605l-.91 2.94-24.144-8.242 1.55-4.303H70.1z"/>
            <path stroke="#000" stroke-width=".934" d="M41.306 97.736l-2.324-8.3M61.438 97.736l2.128-7.523"/>
            <path fill="#FFF" d="M61.602 24.985c0 1.797-.942 3.253-2.106 3.253-1.165 0-2.11-1.456-2.11-3.253 0-1.797.945-3.255 2.11-3.255 1.163 0 2.106 1.457 2.106 3.255"/>
            <path stroke="#000" stroke-linecap="round" stroke-linejoin="round" stroke-width=".934" d="M61.602 24.985c0 1.797-.942 3.253-2.106 3.253-1.165 0-2.11-1.456-2.11-3.253 0-1.797.945-3.255 2.11-3.255 1.163 0 2.106 1.457 2.106 3.255z"/>
            <path fill="#FFF" d="M39.676 24.82c0 1.797-.944 3.254-2.108 3.254-1.164 0-2.108-1.457-2.108-3.254s.944-3.254 2.108-3.254c1.164 0 2.108 1.457 2.108 3.254"/>
            <path stroke="#000" stroke-linecap="round" stroke-linejoin="round" stroke-width=".934" d="M39.676 24.82c0 1.797-.944 3.254-2.108 3.254-1.164 0-2.108-1.457-2.108-3.254s.944-3.254 2.108-3.254c1.164 0 2.108 1.457 2.108 3.254z"/>
            <path stroke="#000" stroke-linecap="round" stroke-width=".934" d="M58.735 24.985s.875-.896 1.43 0M38.486 24.785s-1.14-1.214-1.737.616"/>
            <path fill="#FFF" d="M41.306 39.062s-28.211-.622-27.487 24.933c0 0-.206 20.475 12.092 18.36 12.298-2.114 57.302.987 57.302.987s8.134-3.098 5.58-20.026c0 0-3.798-28.787-33.71-24.562"/>
            <path stroke="#000" stroke-width="1.154" d="M41.306 39.062s-28.211-.622-27.487 24.933c0 0-.206 20.475 12.092 18.36 12.298-2.114 57.302.987 57.302.987s8.134-3.098 5.58-20.026c0 0-3.798-28.787-33.71-24.562"/>
            <path fill="#FFF" d="M41.306 31.733v9.37s1.384 5.288 7.609 5.288c6.168 0 6.168-4.966 6.168-4.966v-8.491l-13.777-1.201z"/>
            <path stroke="#000" stroke-width="1.154" d="M41.306 31.733v9.37s1.384 5.288 7.609 5.288c6.168 0 6.168-4.966 6.168-4.966v-8.491l-13.777-1.201z"/>
            <path fill="#000" d="M37.403 24.826c-.749-2.209-.897-4.474-1.313-6.769-.165-.9-.037-4.762 1.635-6.593 1.592-1.743 3.23-3.175 6.352-4.16 2.983-.943 8.401-.038 11.356 1.19 4.068 1.687 4.222 6.557 4.176 7.312l-.337 5.531c-.012.19-.424 1.911-.53 2.067-.166.244.248.344-.044.384-4.949.69-9.899 1.378-14.848 2.066-1.188.166-2.39.332-3.586.224-1.196-.108-2.004-.41-2.86-1.252"/>
            <path fill="#FFF" d="M48.43 37.863c-6.122 0-8.904-6.12-10.26-12.879l-.323-4.792c0-6.122 4.46-11.132 10.583-11.132s10.517 4.574 10.517 10.698l-.258 5.226c-.661 7.441-4.136 12.88-10.26 12.88"/>
            <path stroke="#000" stroke-linecap="round" stroke-linejoin="round" stroke-width="1.154" d="M48.43 37.863c-6.122 0-8.904-6.12-10.26-12.879l-.323-4.792c0-6.122 4.46-11.132 10.583-11.132s10.517 4.574 10.517 10.698l-.258 5.226c-.661 7.441-4.136 12.88-10.26 12.88z"/>
            <path fill="#000" d="M38.486 25.622l.38-7.794s8.023-2.409 18.333 0l1.5 5.96.573-5.068-.828-4.508-2.834-4.03-6.04-1.689-4.547.567-4.252 2.073-3.473 4.253v4.806l1.188 5.43z"/>
            <path stroke="#000" stroke-linecap="round" stroke-width=".934" d="M45.823 7.494s10.19-5.538 12.16 4.118M49.322 25.401s2.371 2.9-.284 3.137M46.89 31.49s.992 1.982 2.778.45"/>
            <path fill="#FFF" d="M79.503 81.791H22.576a2.624 2.624 0 0 1-2.624-2.623v-33.14a2.623 2.623 0 0 1 2.624-2.624h56.927a2.623 2.623 0 0 1 2.623 2.623v33.141a2.624 2.624 0 0 1-2.623 2.623"/>
            <path stroke="#000" stroke-linecap="round" stroke-linejoin="round" stroke-width="1.154" d="M79.503 81.791H22.576a2.624 2.624 0 0 1-2.624-2.623v-33.14a2.623 2.623 0 0 1 2.624-2.624h56.927a2.623 2.623 0 0 1 2.623 2.623v33.141a2.624 2.624 0 0 1-2.623 2.623z"/>
            <path fill="#000" d="M54.688 60.093a3.5 3.5 0 1 1-7 0 3.5 3.5 0 0 1 7 0M82.31 83.342H20.065a1.555 1.555 0 0 1-1.552-1.551c0-.852.698-1.551 1.552-1.551H82.31c.853 0 1.55.699 1.55 1.55 0 .855-.697 1.552-1.55 1.552M74.136 60.56l-13.081-5.885 1.81-4.028 13.083 5.885z"/>
            <path fill="#DDD" d="M77.429 60.164l-12.364 2.004-.707-4.36 12.364-2.004z"/>
            <path fill="#000" d="M37.89 19.7s7.934-.65 12.407-2.639c1.857-.825 7.686 2.638 7.686 2.638l-.596-2.96h-18.9l-.597 2.96z"/>
            <path fill="#000" d="M58.735 21.878s-6.776-1.341-8.438-4.891c0 0-5.487 4.912-12.086 4.505v-3.459l12.976-5.795 5.247 1.8 1.548 4.108.753 3.732zM332.766 84.073l5.417 4.93-17.483 19.513-6.55 1.435 1.132-6.364z"/>
            <mask id="b" fill="#fff">
                <use xlink:href="#a"/>
            </mask>
            <path fill="#000" d="M309.159 88.536h6.079v-6.079h-6.079z" mask="url(#b)"/>
            <path stroke="#000" stroke-width="1.396" d="M277.745 174.86H167.033V90.272H320.06v43.94" mask="url(#b)"/>
            <path fill="#DDD" d="M167.034 91.16H320.06V79.325H167.034z" mask="url(#b)"/>
            <path fill="#000" d="M273.396 132.713h31.408v-31.408h-31.408z" mask="url(#b)"/>
            <path fill="#FD0" d="M291.449 137.84h17.818v-17.818h-17.818z" mask="url(#b)"/>
            <path fill="#DDD" d="M178.266 159.153h88.881v-10.142h-88.881z" mask="url(#b)"/>
            <path fill="#000" d="M181.475 102.71a1.604 1.604 0 1 1-3.208 0 1.604 1.604 0 0 1 3.208 0M181.475 111.556a1.604 1.604 0 1 1-3.208 0 1.604 1.604 0 0 1 3.208 0M181.475 120.028a1.603 1.603 0 1 1-3.207.001 1.603 1.603 0 0 1 3.207-.001M181.475 128.5a1.603 1.603 0 1 1-3.207.002 1.603 1.603 0 0 1 3.207-.002" mask="url(#b)"/>
            <path stroke="#000" stroke-width="1.396" d="M167.033 92.047V79.325H320.06V91.16" mask="url(#b)"/>
            <path stroke="#000" stroke-width="1.396" d="M104.03 70.012v-38.33h98.567v47.852M104.03 102.668v102.83H202.596v-30.414M104.03 47.069h98.567" mask="url(#b)"/>
            <path stroke="#000" stroke-width="1.396" d="M145.335 40.7h17.729v-2.886h-17.729zM104.03 186.666h98.567" mask="url(#b)"/>
            <path stroke="#000" stroke-width="1.867" d="M185.998 102.71h62.777M185.998 111.556h45.379M185.998 120.4h62.777M185.998 129.245h53.451" mask="url(#b)"/>
            <path stroke="#000" stroke-width="1.167" d="M218.337 44.343h71.159V71.02" mask="url(#b)"/>
            <g mask="url(#b)">
                <path fill="#FFF" d="M108.265 106.98H.699V83.847H140.75v23.135h-3.873"/>
                <path stroke="#000" stroke-width="1.396" d="M108.265 106.98H.699V83.847H140.75v23.135h-3.873"/>
            </g>
            <path fill="#FFF" d="M129.053 95.207c3.904 4.152 3.704 10.684-.448 14.588-4.153 3.904-10.684 3.704-14.588-.448-3.904-4.153-3.704-10.684.448-14.588 4.152-3.905 10.684-3.704 14.588.448" mask="url(#b)"/>
            <path stroke="#000" stroke-width="1.396" d="M129.053 95.207c3.904 4.152 3.704 10.684-.448 14.588-4.153 3.904-10.684 3.704-14.588-.448-3.904-4.153-3.704-10.684.448-14.588 4.152-3.905 10.684-3.704 14.588.448zM122.723 95.413a6.966 6.966 0 0 1 5.676 8.052M128.604 109.795l5.498 5.848" mask="url(#b)"/>
            <path fill="#DDD" d="M7.247 97.444h84.067v-4.062H7.247zM159.53 196.631a6.216 6.216 0 1 1-12.433 0 6.216 6.216 0 1 1 12.433 0" mask="url(#b)"/>
            <path fill="#000" d="M292.343 71.02a2.847 2.847 0 1 1-5.694.001 2.847 2.847 0 0 1 5.694 0M212.724 175.084h-10.126v30.413h-89.86v7.622h99.986zM202.598 79.534h10.126V37.862h-10.126z" mask="url(#b)"/>
            <path fill="#DDD" d="M333.259 245.173h12.077v-4.464h-12.077l-1.2 4.464zM237.88 228.708h-4.044v16.465h45.81v-4.464H237.88V230.4" mask="url(#b)"/>
            <path fill="#000" d="M314.015 175.056l5.23-.653 5.814 3.424-5.608 28.58-5.436 1.265h-4.573z" mask="url(#b)"/>
            <path stroke="#000" stroke-linejoin="round" stroke-width="1.154" d="M277.146 192.192a16.287 16.287 0 0 1-.555-.506s-7.674-6.685-6.938-9.007c0 0 .278-1.01 1.94-.155 0 0-1.13-2.349.334-2.697.46-.112.745.12 1.57 1.058 0 0-.568-1.143.217-1.607 0 0 .505-.446 1.744.976l3.171 3.5s-.124-.804.258-1.113c.552-.445 1.05-.191 1.35.165l3.137 4.252" mask="url(#b)"/>
            <path stroke="#000" stroke-linecap="round" stroke-linejoin="round" stroke-width="1.154" d="M309.441 207.672l4.573-32.616.591-10.303-1.474-2.402s-15.224-4.334-22.012 10.072l-6.888 14.031-8.165 6.614 6.65 9.528s2.32 3.671 5.97 2.128c2.674-1.131 4.363-2.663 5.433-5.785l-2.098 7.094" mask="url(#b)"/>
            <path stroke="#000" stroke-width="1.154" d="M319.45 206.406l5.608-28.58 5.027-14.437s21.038 4.33 19.392 23.93l-2.094 21.094s-.913 3.902-5.017 5.085c0 0-2.606.758-4.793-.55" mask="url(#b)"/>
            <path stroke="#000" stroke-linecap="round" stroke-linejoin="round" stroke-width="1.154" d="M330.085 163.39l.626-4.096s4.889-14.084-4.97-16.977c0 0-5.531-3.49-9.71 2.834 0 0-8.893 16.287 1.072 21.537v3.536l2.143 4.179 9.888-8.28" mask="url(#b)"/>
            <path fill="#000" d="M314.217 149.237s7.592 1.49 11.775-1.377c0 0 .31 6.817 4.029 8.366l2.742.625s4.887-12.95-4.57-15.25c0 0-12.54-6.815-14.983 4.787-.384 1.821 1.007 2.85 1.007 2.85" mask="url(#b)"/>
            <path stroke="#000" stroke-linecap="round" stroke-width=".911" d="M318.499 154.653s-3.046 1.5 0 2.713" mask="url(#b)"/>
            <path stroke="#000" stroke-width="1.154" d="M314.015 175.056l5.23-.653M325.058 177.826l-5.811-3.424M293.392 200.808l7.139-18.352M291.312 196.23l-7.08-9.775" mask="url(#b)"/>
            <g mask="url(#b)">
                <path fill="#FFF" d="M335.052 190.236c-.138-.129-.28-.259-.43-.392l-8.635-6.7s-1.106-.89-1.925-.214c0 0-1.461.908 1.212 3.198 0 0-7.507-3.099-6.028.63 0 0-2.155.526-.747 2.41 0 0-1.76 1.32 0 2.523l12.34 4.161"/>
                <path stroke="#000" stroke-linecap="round" stroke-linejoin="round" stroke-width="1.154" d="M335.052 190.236c-.138-.129-.28-.259-.43-.392l-8.635-6.7s-1.106-.89-1.925-.214c0 0-1.461.908 1.212 3.198 0 0-7.507-3.099-6.028.63 0 0-2.155.526-.747 2.41 0 0-1.76 1.32 0 2.523l12.34 4.161"/>
            </g>
            <path stroke="#000" stroke-width="1.154" d="M345.336 197.162l-7.555-10.564-8.035 10.712 5.306 11.243" mask="url(#b)"/>
            <path stroke="#000" stroke-width="1.154" d="M282.863 216.456v33.884h18.564l.218-25.697h15.717l-5.422 25.697h19.08l6.521-32.428s3.597-13.474-14.687-12.145l-10.476 1.968-10.65-.063s-18.865-6.864-18.865 8.784zM301.728 214.664v9.98M317.362 224.643l1.884-9.313" mask="url(#b)"/>
            <path fill="#000" d="M329.24 250.34l-1.707 6.535H307.76s.771-5.991 6.275-6.535h15.205zM299.116 250.34l-.23 6.535h-21.25s.771-5.991 6.276-6.535H299.116z" mask="url(#b)"/>
            <g mask="url(#b)">
                <path fill="#FFF" d="M328.946 156.151c.312-1.839 1.515-3.168 2.685-2.969 1.17.199 1.865 1.852 1.552 3.69-.312 1.838-1.513 3.167-2.683 2.968l-.983-.164"/>
                <path stroke="#000" stroke-linecap="round" stroke-linejoin="round" stroke-width="1.154" d="M328.946 156.151c.312-1.839 1.515-3.168 2.685-2.969 1.17.199 1.865 1.852 1.552 3.69-.312 1.838-1.513 3.167-2.683 2.968l-.983-.164"/>
            </g>
            <path stroke="#000" stroke-linecap="round" stroke-width=".911" d="M322.673 160.64c-1.317 3.866-4.595 2.092-4.595 2.092" mask="url(#b)"/>
            <path stroke="#000" stroke-linecap="round" stroke-width="1.154" d="M327.217 141.482s8.87-1.524 6.305 7.22" mask="url(#b)"/>
            <path stroke="#000" stroke-linecap="round" stroke-width=".911" d="M330.162 156.854s.76-.77 1.521 0" mask="url(#b)"/>
            <path stroke="#000" stroke-width="1.154" d="M318.499 189.168l5.403 1.515M319.246 186.757l4.912 1.055M271.594 182.524l1.73 2.163M273.496 180.885l1.868 2.72M317.103 166.688s3.936 1.638 8.638-2.004M338.571 224.643h10.998v16.066h-16.31" mask="url(#b)"/>
            <g mask="url(#b)">
                <path fill="#FFF" d="M279.645 240.71H237.88v-16.067h41.765"/>
                <path stroke="#000" stroke-width="1.154" d="M279.645 240.71H237.88v-16.067h41.765"/>
            </g>
            <path fill="#FFF" d="M252.68 232.676a4.992 4.992 0 1 1-9.984 0 4.992 4.992 0 0 1 9.985 0" mask="url(#b)"/>
            <path stroke="#000" stroke-width="1.154" d="M252.68 232.676a4.992 4.992 0 1 1-9.984 0 4.992 4.992 0 0 1 9.985 0z" mask="url(#b)"/>
            <g mask="url(#b)">
                <path fill="#FFF" d="M244.748 232.924l2.238 2.028 3.642-4.552"/>
                <path stroke="#000" stroke-width="1.154" d="M244.748 232.924l2.238 2.028 3.642-4.552"/>
            </g>
            <path stroke="#000" stroke-width="1.154" d="M306.165 148.702l-2.977-3.66M299.776 149.766l4.9 1.137M300.483 155.253l4.193-1.199" mask="url(#b)"/>
            <path fill="#FFF" stroke="#000" stroke-width="1.154" d="M34.72 189.87H22.913a2.238 2.238 0 0 1-2.238-2.237v-7.725a2.238 2.238 0 0 1 2.238-2.238H34.72a2.238 2.238 0 0 1 2.238 2.238v7.725a2.238 2.238 0 0 1-2.238 2.237z" mask="url(#b)"/>
            <path stroke="#000" stroke-width="1.154" d="M24.304 177.67v-1.756a4.514 4.514 0 0 1 9.025 0v1.756M28.816 186.904a1.323 1.323 0 0 1-1.322-1.322v-3.277a1.323 1.323 0 0 1 2.644 0v3.277c0 .73-.592 1.322-1.322 1.322z" mask="url(#b)"/>
            <path fill="#000" d="M95.138 278.5H40.972c-5.15 0-9.323-4.176-9.323-9.325a9.322 9.322 0 0 1 9.323-9.323h54.166a9.325 9.325 0 0 1 0 18.647M61.577 178.67c-.566 2.168-1.045 3.101-2.41 4.383-1.366 1.282-2.937 2.388-3.99 3.937-2.438 3.582-1.574 8.656-3.952 12.277-1.089 1.66-2.755 2.841-4.11 4.293-1.356 1.451-2.448 3.435-1.956 5.36.341 1.333 1.381 2.372 2.48 3.201 2.638 1.99 5.958 3.178 9.252 2.907 2.223-.18 4.347-1.005 6.335-2.015 4.51-2.293 8.582-5.72 10.853-10.24 2.27-4.52 2.505-10.213-.122-14.537-.667-1.098-1.498-2.088-2.349-3.05-2.575-2.916-5.469-5.702-9.07-7.17" mask="url(#b)"/>
            <g mask="url(#b)">
                <path fill="#FFF" d="M93.447 224.979l5.257-1.577 5.758 19.263"/>
                <path stroke="#000" stroke-width="1.154" d="M93.447 224.979l5.257-1.577 5.758 19.263"/>
            </g>
            <path stroke="#000" stroke-width="1.154" d="M98.704 241.531s31.341 4.017 24.74 21.62l-9.559 26.438-22.346-32.765-12.377-8.25v-7.043h19.542z" mask="url(#b)"/>
            <g mask="url(#b)">
                <path fill="#FFF" d="M66.594 201.774s-19.233.039-17.486 17.503l2.095 12.748 10.185-1.086-.75 14.292 38.424-3.649-3.85-17.133 3.492-1.048-3.667-10.479c-4.034-12.733-15.893-11.912-15.893-11.912l-2.352.013"/>
                <path stroke="#000" stroke-linecap="round" stroke-linejoin="round" stroke-width="1.154" d="M66.594 201.774s-19.233.039-17.486 17.503l2.095 12.748 10.185-1.086-.75 14.292 38.424-3.649-3.85-17.133 3.492-1.048-3.667-10.479c-4.034-12.733-15.893-11.912-15.893-11.912l-2.352.013"/>
            </g>
            <path fill="#FFF" d="M51.203 232.024s2.306 14.189 9.436 13.208c0 0 9.076.59 15.711-23.685l1.223-4.89 6.83-2.324s1.615-.857 0-1.886c0 0 1.487-1.728-.818-2.023 0 0 .838-1.55-1.342-1.298 0 0-9.456.208-13.345 6.951l-7.51 14.863-10.185 1.084z" mask="url(#b)"/>
            <path stroke="#000" stroke-linecap="round" stroke-linejoin="round" stroke-width="1.154" d="M51.203 232.024s2.306 14.189 9.436 13.208c0 0 9.076.59 15.711-23.685l1.223-4.89 6.83-2.324s1.615-.857 0-1.886c0 0 1.487-1.728-.818-2.023 0 0 .838-1.55-1.342-1.298 0 0-9.456.208-13.345 6.951l-7.51 14.863-10.185 1.084z" mask="url(#b)"/>
            <path fill="#FFF" d="M60.639 245.232s-1.59 16.222 13.074 16.222h14.939l2.612 29.588h23.104l-5.457-33.777s-1.324-10.74-11.596-13.257c0 0-8.405-2.303-17.542-1.978-9.744.347-19.134 3.202-19.134 3.202" mask="url(#b)"/>
            <path stroke="#000" stroke-linecap="round" stroke-linejoin="round" stroke-width="1.154" d="M60.639 245.232s-1.59 16.222 13.074 16.222h14.939l2.612 29.588h23.104l-5.457-33.777s-1.324-10.74-11.596-13.257c0 0-8.405-2.303-17.542-1.978-9.744.347-19.134 3.202-19.134 3.202z" mask="url(#b)"/>
            <path fill="#000" d="M109.646 291.041s9.708 4.184 8.774 9.971L117.337 304l-24.12-7.842v-5.117h16.43z" mask="url(#b)"/>
            <g mask="url(#b)">
                <path fill="#FFF" d="M83.34 181.381c1.18 6.121 1.835 16.355-6.42 18.051l-.128 1.592-.137 1.671s-7.47 2.373-12.277-.558l.066-8.282s-.781-.658-1.365-13.219"/>
                <path stroke="#000" stroke-linecap="round" stroke-linejoin="round" stroke-width="1.154" d="M83.34 181.381c1.18 6.121 1.835 16.355-6.42 18.051l-.128 1.592-.137 1.671s-7.47 2.373-12.277-.558l.066-8.282s-.781-.658-1.365-13.219"/>
            </g>
            <path fill="#000" d="M76.22 180.444s3.673 2.044 7.817 2.382c0 0 .04-1.034-.131-2.323-.338-2.535-2.535-6.333-4.843-7.43-2.31-1.097-4.964-1.204-7.513-1.013-3.288.245-6.857 1.154-8.75 3.855-.636.906-1.035 1.96-1.294 3.036-.856 3.567-.193 7.316.696 10.876.3 1.2.649 2.439 1.46 3.37.814.934 2.225 1.462 3.325.893.6-.31 1.012-.883 1.402-1.436l2.042-2.904c.205-.292.413-.59.519-.93.109-.345.107-.715.104-1.077-.018-1.82-.048-3.702-.801-5.36 2.533-.367 3.628-3.11 5.905-3.377 2.018-.238 5.23 2.006 7.252 1.607" mask="url(#b)"/>
            <g mask="url(#b)">
                <path fill="#FFF" d="M71.974 186.815c-.392-.823-1.092-1.37-1.89-1.37-1.227 0-2.222 1.296-2.222 2.896 0 1.601.995 2.898 2.222 2.898"/>
                <path stroke="#000" stroke-linecap="round" stroke-linejoin="round" stroke-width=".911" d="M71.974 186.815c-.392-.823-1.092-1.37-1.89-1.37-1.227 0-2.222 1.296-2.222 2.896 0 1.601.995 2.898 2.222 2.898"/>
            </g>
            <path stroke="#000" stroke-linecap="round" stroke-width=".911" d="M81.544 187.736s2.39 1.972 0 2.987M81.19 194.546s-2.175 1.434-2.565-1.479" mask="url(#b)"/>
            <path fill="#000" d="M69.558 191.24s2.78 10.924-5.18 10.896c-7.96-.027-1.612-10.46-1.612-10.46l4.569-.437h2.223zM71.017 186.16s3.246-1.713 5.28-4.52c2.032-2.808-6.74-.356-6.74-.356v2.77l1.46 2.106z" mask="url(#b)"/>
            <path stroke="#000" stroke-linecap="round" stroke-width="1.154" d="M56.312 187.483s-12.271 12.4-8.383 17.065" mask="url(#b)"/>
            <path stroke="#000" stroke-width="1.154" d="M61.92 229.888l-1.32-9.71M95.212 224.45l-2.523-11.472M83.585 210.425l-3.364.86M84.402 212.447l-3.446.886" mask="url(#b)"/>
            <path stroke="#000" stroke-linecap="round" stroke-width=".911" d="M69.394 187.877s1.5-.294 1.237 1.097" mask="url(#b)"/>
            <path fill="#000" d="M71.017 186.16s4.883-2.123 5.784-5.462c0 0 4.106 2.185 6.977 1.727l-1.877-3.663-6.773-.747-3.859.135-.252 8.01z" mask="url(#b)"/>
            <path stroke="#000" stroke-dasharray="2.103" stroke-width="1.154" d="M91.683 262.774l3.528 26.815" mask="url(#b)"/>
            <path stroke="#000" stroke-width="1.154" d="M84.037 218.895l6.966-1.104" mask="url(#b)"/>
            <path stroke="#000" stroke-dasharray="2.103" stroke-width="1.154" d="M28.816 194.325s2.092 8.714 11.856 7.812" mask="url(#b)"/>
            <path stroke="#000" stroke-dasharray="2.801" stroke-width="1.154" d="M324.318 20.92c0 6.532-5.296 11.828-11.828 11.828-6.533 0-11.828-5.296-11.828-11.828 0-6.532 5.295-11.828 11.828-11.828 6.532 0 11.828 5.296 11.828 11.828z" mask="url(#b)"/>
            <path fill="#000" d="M319.827 41.965h30.395V23.944h-30.395z" mask="url(#b)"/>
            <path fill="#FFF" d="M316.374 38.941h30.396V20.92h-30.396z" mask="url(#b)"/>
            <path stroke="#000" stroke-width="1.154" d="M316.374 38.941h30.396V20.92h-30.396z" mask="url(#b)"/>
            <path stroke="#000" stroke-width="1.154" d="M316.375 20.92l15.197 12.034L346.77 20.92" mask="url(#b)"/>
            <path fill="#FFF" d="M109.456 1.139H74.424a3.528 3.528 0 0 0-3.518 3.518v16.5a3.528 3.528 0 0 0 3.518 3.518h2.02v5.122l5.045-5.122h27.967a3.528 3.528 0 0 0 3.518-3.517V4.657a3.528 3.528 0 0 0-3.518-3.518" mask="url(#b)"/>
            <path stroke="#000" stroke-width="1.154" d="M109.456 1.139H74.424a3.528 3.528 0 0 0-3.518 3.518v16.5a3.528 3.528 0 0 0 3.518 3.518h2.02v5.122l5.045-5.122h27.967a3.528 3.528 0 0 0 3.518-3.517V4.657a3.528 3.528 0 0 0-3.518-3.518z" mask="url(#b)"/>
            <path fill="#000" d="M124.444 18.182h-1.469v-3.726l-3.669 3.726h-20.34a2.565 2.565 0 0 0-2.558 2.559v12a2.565 2.565 0 0 0 2.557 2.559h25.48a2.566 2.566 0 0 0 2.558-2.558V20.74a2.566 2.566 0 0 0-2.559-2.56" mask="url(#b)"/>
            <g mask="url(#b)">
                <path fill="#FFF" d="M76.002 8.173h20.406"/>
                <path stroke="#000" stroke-width="1.154" d="M76.002 8.173h20.406"/>
            </g>
            <g mask="url(#b)">
                <path fill="#FFF" d="M76.002 12.833H89.65"/>
                <path stroke="#000" stroke-width="1.154" d="M76.002 12.833H89.65"/>
            </g>
            <g mask="url(#b)">
                <path fill="#FFF" d="M76.002 17.494h20.406"/>
                <path stroke="#000" stroke-width="1.154" d="M76.002 17.494h20.406"/>
            </g>
        </g>
    </g>
</svg>
